<svg xmlns="http://www.w3.org/2000/svg" xmlns:xlink="http://www.w3.org/1999/xlink" version="1.1" x="0px" y="0px" viewBox="64 64 384 384" style="enable-background:new 0 0 512 512;" xml:space="preserve"><path d="M259.5,354.4c-3.8,0-7.6-1.3-10.7-4c-29-24.8-96.3-87.2-96.3-132.4c0-30.7,25.9-56.7,56.6-56.7c22.1,0,40.6,17.1,49.6,27.3  c0.3,0.3,0.6,0.4,0.8,0.4c0,0,0,0,0,0c0.2,0,0.5-0.1,0.8-0.4c9-10.2,27.4-27.4,49.5-27.4c30.7,0,56.6,26,56.6,56.7  c0,20.1-13.3,45.8-39.6,76.5c-9.9,11.5-21.5,23.6-34.4,35.9c-9.1,8.7-17.1,15.6-22.1,20C267.2,353,263.3,354.4,259.5,354.4z   M209.1,173.4c-24.2,0-44.6,20.5-44.6,44.7c0,32.8,47.6,85.2,92.1,123.3c1.7,1.5,4.2,1.4,5.9,0c4.9-4.2,12.7-11.1,21.7-19.6  c12.6-12,23.9-23.7,33.5-35c24-28,36.7-51.8,36.7-68.7c0-24.2-20.4-44.7-44.6-44.7c-17.4,0-32.8,14.6-40.5,23.3  c-2.5,2.8-6,4.4-9.8,4.4c0,0,0,0,0,0c-3.7,0-7.3-1.6-9.8-4.4C242,188,226.5,173.4,209.1,173.4z"/></svg>