<svg xmlns="http://www.w3.org/2000/svg" xmlns:xlink="http://www.w3.org/1999/xlink" version="1.1" x="0px" y="0px" viewBox="64 64 384 384" style="enable-background:new 0 0 512 512;" xml:space="preserve"><path d="M300.6,346.8c-2.3,0-4.6-0.6-6.7-1.7l-139.3-76.2c-4.4-2.4-7-6.7-7-11.6c0-4.9,2.6-9.2,7-11.6l139.3-76.2  c4.3-2.4,9.6-2.3,13.9,0.2c4.1,2.4,6.6,6.7,6.6,11.3v152.5c0,4.7-2.4,8.9-6.6,11.3C305.6,346.1,303.1,346.8,300.6,346.8z   M300.6,179.7c-0.3,0-0.6,0.1-1,0.3l-139.3,76.2c-0.5,0.3-0.7,0.6-0.7,1c0,0.4,0.2,0.8,0.7,1.1l139.3,76.2c0.9,0.5,1.8,0.1,2,0  c0.4-0.3,0.7-0.6,0.7-1V181c0-0.4-0.2-0.8-0.7-1C301.5,179.9,301.1,179.7,300.6,179.7z"/><path d="M364.5,346.5h-19.1c-7.6,0-13.9-6.2-13.9-13.9V181.9c0-7.6,6.2-13.9,13.9-13.9h19.1c7.6,0,13.9,6.2,13.9,13.9v150.7  C378.4,340.3,372.2,346.5,364.5,346.5z M345.5,180c-1,0-1.9,0.8-1.9,1.9v150.7c0,1,0.8,1.9,1.9,1.9h19.1c1,0,1.9-0.8,1.9-1.9V181.9  c0-1-0.8-1.9-1.9-1.9H345.5z"/></svg>