<svg xmlns="http://www.w3.org/2000/svg" xmlns:xlink="http://www.w3.org/1999/xlink" version="1.1" x="0px" y="0px" viewBox="64 64 384 384" style="enable-background:new 0 0 512 512;" xml:space="preserve"><path d="M377.8,202c0,2.5-1.2,4.9-3.2,6.5L346,231.8c-1.1,0.9-2.5,1.4-3.8,1.4c-1.8,0-3.5-0.8-4.7-2.2c-2.1-2.6-1.7-6.4,0.9-8.4  l17.8-14.4h-6.4c-29.2,0-56.9,11.4-74,30.5c-1.2,1.3-2.8,2-4.5,2c-1.4,0-2.8-0.5-4-1.5c-2.5-2.2-2.7-6-0.5-8.5  c19.3-21.6,50.3-34.5,82.9-34.5h6.4l-17.8-14.4c-2.6-2.1-3-5.8-0.9-8.4c2.1-2.6,5.9-3,8.5-0.9l28.6,23.2  C376.6,197.2,377.8,199.5,377.8,202z"/><path d="M377.8,308.6c0,2.5-1.2,4.9-3.2,6.5l-28.6,23.2c-1.1,0.9-2.4,1.3-3.8,1.3c-1.8,0-3.5-0.8-4.7-2.2c-2.1-2.6-1.7-6.4,0.9-8.4  l17.8-14.4h-6.4c-43.7,0-82.8-22.9-97.2-57C240,228,205.3,208,166.3,208h-21.7c-3.3,0-6-2.7-6-6c0-3.3,2.7-6,6-6h21.7  c43.8,0,82.8,22.9,97.3,57c12.6,29.7,47.2,49.6,86.2,49.6h6.4l-17.8-14.4c-2.6-2.1-3-5.9-0.9-8.4c2.1-2.6,5.9-3,8.5-0.9l28.6,23.2  C376.6,303.8,377.8,306.2,377.8,308.6z"/><path d="M166.3,314.6h-21.7c-3.3,0-6-2.7-6-6s2.7-6,6-6h21.7c29.2,0,56.9-11.4,74-30.5c2.2-2.5,6-2.7,8.5-0.5c2.5,2.2,2.7,6,0.5,8.5  C229.9,301.7,198.9,314.6,166.3,314.6z"/></svg>