<svg xmlns="http://www.w3.org/2000/svg" xmlns:xlink="http://www.w3.org/1999/xlink" version="1.1" x="0px" y="0px" viewBox="64 64 384 384" style="enable-background:new 0 0 512 512;" xml:space="preserve"><g><path d="M291.9,213v-53.3c0-7.5-4.1-14.2-10.8-17.3c-6.5-3.1-14.1-2.2-19.8,2.5l-61.8,58.7h-20.9c-12.3,0-22.3,10-22.3,22.2v63.7   c0,12.3,10,22.2,22.3,22.2h20.8l61.5,58.4l0.4,0.3c3.5,2.8,7.7,4.3,11.9,4.3c2.7,0,5.4-0.6,8-1.8c6.6-3.2,10.8-9.8,10.8-17.3v-53.3   c22-2.9,39.1-21.9,39.1-44.7C330.9,234.8,313.9,215.9,291.9,213z M195.8,299.8h-17.3c-5.7,0-10.3-4.6-10.3-10.2v-63.7   c0-5.6,4.6-10.2,10.3-10.2h17.3V299.8z M279.9,355.6c0,2.9-1.5,5.3-3.9,6.5c-1.1,0.6-4,1.5-7-0.8l-61.2-58.1v-91L269,154   c3-2.3,5.8-1.4,7-0.8c2.4,1.2,3.9,3.6,3.9,6.5V355.6z M291.9,290.2v-65.1c15.4,2.8,27.1,16.3,27.1,32.6   C318.9,273.9,307.2,287.4,291.9,290.2z"/><path d="M309.5,333.2c-2.6,0-5-1.7-5.8-4.3c-0.9-3.2,0.9-6.5,4.1-7.4c28.2-8.2,47.9-34.4,47.9-63.7c0-29.4-19.7-55.6-47.9-63.7   c-3.2-0.9-5-4.3-4.1-7.4c0.9-3.2,4.3-5,7.4-4.1c33.3,9.7,56.6,40.6,56.6,75.3s-23.3,65.6-56.6,75.3   C310.6,333.1,310,333.2,309.5,333.2z"/></g></svg>