<svg xmlns="http://www.w3.org/2000/svg" xmlns:xlink="http://www.w3.org/1999/xlink" version="1.1" x="0px" y="0px" viewBox="64 64 384 384" style="enable-background:new 0 0 512 512;" xml:space="preserve"><path d="M355.9,345.6c-2.3,0-4.6-0.6-6.7-1.7l-139.3-76.2c-4.4-2.4-7-6.7-7-11.6c0-4.9,2.6-9.2,7-11.6l139.3-76.2  c4.3-2.4,9.6-2.3,13.9,0.2c4.1,2.4,6.6,6.7,6.6,11.3v152.5c0,4.7-2.4,8.9-6.6,11.3C360.9,344.9,358.4,345.6,355.9,345.6z   M355.9,178.5c-0.3,0-0.6,0.1-1,0.3L215.6,255c-0.5,0.3-0.7,0.6-0.7,1c0,0.4,0.2,0.8,0.7,1.1l139.3,76.2c0.9,0.5,1.8,0.1,2,0  c0.4-0.3,0.7-0.6,0.7-1V179.8c0-0.4-0.2-0.8-0.7-1C356.8,178.7,356.4,178.5,355.9,178.5z"/><path d="M179.3,345.3h-19.1c-7.6,0-13.9-6.2-13.9-13.9V180.7c0-7.6,6.2-13.9,13.9-13.9h19.1c7.6,0,13.9,6.2,13.9,13.9v150.7  C193.1,339.1,186.9,345.3,179.3,345.3z M160.2,178.8c-1,0-1.9,0.8-1.9,1.9v150.7c0,1,0.8,1.9,1.9,1.9h19.1c1,0,1.9-0.8,1.9-1.9  V180.7c0-1-0.8-1.9-1.9-1.9H160.2z"/></svg>