<svg xmlns="http://www.w3.org/2000/svg" xmlns:xlink="http://www.w3.org/1999/xlink" version="1.1" x="0px" y="0px" viewBox="64 64 384 384" style="enable-background:new 0 0 512 512;" xml:space="preserve"><path d="M344.1,181.3v31.2c0,3.3-2.7,6-6,6c-3.3,0-6-2.7-6-6v-20.8l-37.7,37.7c-1.2,1.2-2.7,1.8-4.3,1.8c-1.5,0-3-0.6-4.2-1.8  c-2.3-2.3-2.3-6.1,0-8.5l37.7-37.7h-20.8c-3.3,0-6-2.7-6-6c0-3.3,2.7-6,6-6H334C339.6,171.2,344.1,175.8,344.1,181.3z"/><path d="M229.1,229.4c-1.2,1.2-2.7,1.8-4.2,1.8c-1.6,0-3.1-0.6-4.2-1.8L183,191.8v20.8c0,3.3-2.7,6-6,6c-3.3,0-6-2.7-6-6v-31.2  c0-5.6,4.5-10.1,10.1-10.1h31.2c3.3,0,6,2.7,6,6c0,3.3-2.7,6-6,6h-20.8l37.7,37.7C231.5,223.3,231.5,227.1,229.1,229.4z"/><path d="M229.1,294.7l-37.7,37.7h20.8c3.3,0,6,2.7,6,6s-2.7,6-6,6H181c-5.6,0-10.1-4.5-10.1-10.1v-31.2c0-3.3,2.7-6,6-6  c3.3,0,6,2.7,6,6v20.8l37.7-37.7c2.3-2.4,6.1-2.4,8.5,0C231.5,288.6,231.5,292.4,229.1,294.7z"/><path d="M344.1,303.1v31.2c0,5.6-4.5,10.1-10.1,10.1h-31.2c-3.3,0-6-2.7-6-6s2.7-6,6-6h20.8l-37.7-37.7c-2.3-2.4-2.3-6.1,0-8.5  c2.4-2.4,6.2-2.4,8.5,0l37.7,37.7v-20.9c0-3.3,2.7-6,6-6C341.4,297.1,344.1,299.8,344.1,303.1z"/></svg>