<svg xmlns="http://www.w3.org/2000/svg" xmlns:xlink="http://www.w3.org/1999/xlink" version="1.1" x="0px" y="0px" viewBox="64 64 384 384" style="enable-background:new 0 0 512 512;" xml:space="preserve"><path d="M225.4,167.7c2.3,0,4.6,0.6,6.7,1.7l139.3,76.2c4.4,2.4,7,6.7,7,11.6c0,4.9-2.6,9.2-7,11.6l-139.3,76.2  c-4.3,2.4-9.6,2.3-13.9-0.2c-4.1-2.4-6.6-6.7-6.6-11.3V181c0-4.7,2.4-8.9,6.6-11.3C220.5,168.4,222.9,167.7,225.4,167.7z   M225.4,334.8c0.3,0,0.6-0.1,1-0.3l139.3-76.2c0.5-0.3,0.7-0.6,0.7-1c0-0.4-0.2-0.8-0.7-1.1L226.4,180c-0.9-0.5-1.8-0.1-2,0  c-0.4,0.3-0.7,0.6-0.7,1v152.5c0,0.4,0.2,0.8,0.7,1C224.5,334.6,224.9,334.8,225.4,334.8z"/><path d="M161.5,168h19.1c7.6,0,13.9,6.2,13.9,13.9v150.7c0,7.6-6.2,13.9-13.9,13.9h-19.1c-7.6,0-13.9-6.2-13.9-13.9V181.9  C147.6,174.3,153.9,168,161.5,168z M180.6,334.5c1,0,1.9-0.8,1.9-1.9V181.9c0-1-0.8-1.9-1.9-1.9h-19.1c-1,0-1.9,0.8-1.9,1.9v150.7  c0,1,0.8,1.9,1.9,1.9H180.6z"/></svg>