<svg xmlns="http://www.w3.org/2000/svg" xmlns:xlink="http://www.w3.org/1999/xlink" version="1.1" x="0px" y="0px" viewBox="64 64 384 384" style="enable-background:new 0 0 512 512;" xml:space="preserve"><path d="M375.3,365.8l-65.4-65.4c18.3-5.7,31.6-22.9,31.6-43c0-22.8-17-41.8-39.1-44.7v-53.3c0-7.5-4.1-14.2-10.8-17.3  c-6.5-3.1-14.1-2.2-19.8,2.5l-60.4,57.4l-60-59.9c-2.4-2.4-6.2-2.4-8.5,0c-2.4,2.3-2.4,6.1,0,8.5l52.8,52.8h-6.6  c-12.3,0-22.3,10-22.3,22.2v63.7c0,12.3,10,22.2,22.3,22.2H210l61.5,58.4l0.4,0.3c3.5,2.8,7.7,4.2,11.9,4.2c2.7,0,5.4-0.6,8-1.8  c6.6-3.2,10.8-9.8,10.8-17.3v-45.4l64.3,64.3c1.2,1.2,2.7,1.8,4.3,1.8c1.5,0,3-0.6,4.2-1.8C377.6,371.9,377.6,368.1,375.3,365.8z   M206.4,299.4h-17.3c-5.7,0-10.3-4.6-10.3-10.2v-63.7c0-5.6,4.6-10.2,10.3-10.2h17.3V299.4z M290.5,355.3c0,2.9-1.5,5.3-3.9,6.5  c-1.1,0.6-4,1.5-7-0.8l-61.2-58.1v-77l72,72V355.3z M290.5,280.9l-70.6-70.6l59.7-56.7c3-2.3,5.8-1.4,7-0.8c2.4,1.2,3.9,3.6,3.9,6.5  V280.9z M302.5,224.8c15.4,2.8,27.1,16.3,27.1,32.6c0,16.2-11.7,29.7-27.1,32.5V224.8z"/></svg>