<svg xmlns="http://www.w3.org/2000/svg" xmlns:xlink="http://www.w3.org/1999/xlink" version="1.1" x="0px" y="0px" viewBox="64 64 384 384" style="enable-background:new 0 0 512 512;" xml:space="preserve"><path d="M160,166.5c2.3,0,4.6,0.6,6.7,1.7L306,244.5c4.4,2.4,7,6.7,7,11.6c0,4.9-2.6,9.2-7,11.6l-139.3,76.2  c-4.3,2.4-9.6,2.3-13.9-0.2c-4.1-2.4-6.6-6.7-6.6-11.3V179.8c0-4.7,2.4-8.9,6.6-11.3C155.1,167.2,157.5,166.5,160,166.5z M160,333.6  c0.3,0,0.6-0.1,1-0.3l139.3-76.2c0.5-0.3,0.7-0.6,0.7-1s-0.2-0.8-0.7-1.1L161,178.8c-0.9-0.5-1.8-0.1-2,0c-0.4,0.3-0.7,0.6-0.7,1  v152.5c0,0.4,0.2,0.8,0.7,1C159.1,333.4,159.5,333.6,160,333.6z"/><path d="M336.7,166.8h19.1c7.6,0,13.9,6.2,13.9,13.9v150.7c0,7.6-6.2,13.9-13.9,13.9h-19.1c-7.6,0-13.9-6.2-13.9-13.9V180.7  C322.8,173,329,166.8,336.7,166.8z M355.7,333.3c1,0,1.9-0.8,1.9-1.9V180.7c0-1-0.8-1.9-1.9-1.9h-19.1c-1,0-1.9,0.8-1.9,1.9v150.7  c0,1,0.8,1.9,1.9,1.9H355.7z"/></svg>