<svg xmlns="http://www.w3.org/2000/svg" xmlns:xlink="http://www.w3.org/1999/xlink" version="1.1" x="0px" y="0px" viewBox="64 64 384 384" style="enable-background:new 0 0 512 512;" xml:space="preserve"><path d="M226.3,344h-38c-8.9,0-16.2-7.3-16.2-16.2v-147c0-8.9,7.3-16.2,16.2-16.2h38c8.9,0,16.2,7.3,16.2,16.2v147  C242.5,336.7,235.2,344,226.3,344z M188.3,176.6c-2.3,0-4.2,1.9-4.2,4.2v147c0,2.3,1.9,4.2,4.2,4.2h38c2.3,0,4.2-1.9,4.2-4.2v-147  c0-2.3-1.9-4.2-4.2-4.2H188.3z"/><path d="M322.6,344h-38c-8.9,0-16.2-7.3-16.2-16.2v-147c0-8.9,7.3-16.2,16.2-16.2h38c8.9,0,16.2,7.3,16.2,16.2v147  C338.8,336.7,331.5,344,322.6,344z M284.6,176.6c-2.3,0-4.2,1.9-4.2,4.2v147c0,2.3,1.9,4.2,4.2,4.2h38c2.3,0,4.2-1.9,4.2-4.2v-147  c0-2.3-1.9-4.2-4.2-4.2H284.6z"/></svg>