<svg xmlns="http://www.w3.org/2000/svg" xmlns:xlink="http://www.w3.org/1999/xlink" version="1.1" x="0px" y="0px" viewBox="64 64 384 384" style="enable-background:new 0 0 512 512;" xml:space="preserve"><g><path d="M267.7,210.3V157c0-7.5-4.1-14.2-10.8-17.3c-6.5-3.1-14.1-2.2-19.8,2.5l-61.8,58.7h-20.9c-12.3,0-22.2,10-22.2,22.3v63.7   c0,12.3,10,22.2,22.2,22.2h20.9l61.5,58.4l0.4,0.3c3.5,2.8,7.7,4.3,11.9,4.3c2.7,0,5.4-0.6,8-1.8c6.6-3.2,10.8-9.8,10.8-17.3v-53.3   c22-2.9,39.1-21.9,39.1-44.7C306.8,232.2,289.7,213.2,267.7,210.3z M144.1,286.9v-63.7c0-5.7,4.6-10.3,10.2-10.3h17.3v84.2h-17.3   C148.7,297.1,144.1,292.5,144.1,286.9z M255.7,353c0,2.9-1.5,5.3-3.9,6.5c-1.1,0.5-4,1.5-7-0.8l-61.1-58.1v-91l61.1-58.1   c3-2.3,5.8-1.4,7-0.8c2.4,1.2,3.9,3.6,3.9,6.5V353z M267.7,287.6v-65.1c15.4,2.8,27.1,16.4,27.1,32.6S283.1,284.8,267.7,287.6z"/><path d="M285.3,330.5c-2.6,0-5-1.7-5.8-4.3c-0.9-3.2,0.9-6.5,4.1-7.4c28.2-8.2,47.9-34.4,47.9-63.7c0-29.4-19.7-55.6-47.9-63.7   c-3.2-0.9-5-4.3-4.1-7.4c0.9-3.2,4.2-5,7.4-4.1c33.3,9.7,56.6,40.6,56.6,75.3c0,34.7-23.3,65.6-56.6,75.3   C286.4,330.5,285.9,330.5,285.3,330.5z"/><path d="M286.3,368.8c-2.6,0-5.1-1.8-5.8-4.4c-0.9-3.2,1-6.5,4.2-7.4c48.8-13.1,82.8-55,82.8-102c0-46.9-34.1-88.9-82.8-102   c-3.2-0.9-5.1-4.2-4.2-7.4c0.9-3.2,4.1-5.1,7.4-4.2c54,14.5,91.7,61.2,91.7,113.6c0,52.3-37.7,99-91.7,113.6   C287.3,368.7,286.8,368.8,286.3,368.8z"/></g></svg>