<svg xmlns="http://www.w3.org/2000/svg" xmlns:xlink="http://www.w3.org/1999/xlink" version="1.1" x="0px" y="0px" viewBox="64 64 384 384" style="enable-background:new 0 0 512 512;" xml:space="preserve"><g><path d="M313.5,212v-53.3c0-7.5-4.1-14.1-10.8-17.3c-6.5-3.1-14.1-2.2-20,2.6l-67.3,58.6h-25.3c-9.9,0-18,8-18,17.9v72.3   c0,9.9,8.1,18,18,18h25.4l67.2,58.6l0.2,0.1c3.5,2.8,7.6,4.3,11.9,4.3c2.7,0,5.4-0.6,8-1.8c6.6-3.2,10.8-9.8,10.8-17.3v-53.3   c22-3,39.1-21.9,39.1-44.7C352.6,233.9,335.5,215,313.5,212z M211.7,298.8h-21.6c-3.3,0-6-2.7-6-6v-72.3c0-3.3,2.7-5.9,6-5.9h21.6   V298.8z M301.5,354.7c0,2.9-1.5,5.3-3.9,6.5c-1.1,0.5-4,1.5-7.1-0.9l-66.8-58.2v-90.7l66.7-58.2c3.1-2.4,6-1.5,7.2-1   c2.4,1.2,3.9,3.6,3.9,6.5V354.7z M313.5,289.3v-65.1c15.4,2.8,27.1,16.3,27.1,32.5C340.6,272.9,328.9,286.4,313.5,289.3z"/></g></svg>