<svg xmlns="http://www.w3.org/2000/svg" xmlns:xlink="http://www.w3.org/1999/xlink" version="1.1" x="0px" y="0px" viewBox="64 64 384 384" style="enable-background:new 0 0 512 512;" xml:space="preserve"><path d="M278,345.6c-2.3,0-4.6-0.6-6.7-1.7L132,267.6c-4.4-2.4-7-6.7-7-11.6c0-4.9,2.6-9.2,7-11.6l139.3-76.2  c4.3-2.4,9.6-2.3,13.9,0.2c4.1,2.4,6.6,6.7,6.6,11.3v16.5c0,3.3-2.7,6-6,6s-6-2.7-6-6v-16.5c0-0.4-0.2-0.8-0.7-1  c-0.2-0.1-1.1-0.5-2,0L137.8,255c-0.5,0.3-0.7,0.6-0.7,1c0,0.4,0.2,0.8,0.7,1.1L277,333.3c0.9,0.5,1.8,0.1,2,0  c0.4-0.3,0.7-0.6,0.7-1v-16.5c0-3.3,2.7-6,6-6s6,2.7,6,6v16.5c0,4.7-2.4,8.9-6.6,11.3C283,344.9,280.5,345.6,278,345.6z"/><path d="M375.6,345.6c-2.3,0-4.6-0.6-6.7-1.7l-139.3-76.2c-4.4-2.4-7-6.7-7-11.6c0-4.9,2.6-9.2,7-11.6l139.3-76.2  c4.3-2.4,9.6-2.3,13.9,0.2c4.1,2.4,6.6,6.7,6.6,11.3v152.5c0,4.7-2.4,8.9-6.6,11.3C380.6,344.9,378.1,345.6,375.6,345.6z   M375.6,178.5c-0.3,0-0.6,0.1-0.9,0.2L235.4,255c-0.5,0.3-0.7,0.6-0.7,1c0,0.4,0.2,0.8,0.7,1.1l139.3,76.2c0.9,0.5,1.8,0.1,2,0  c0.4-0.3,0.7-0.6,0.7-1V179.8c0-0.4-0.2-0.8-0.7-1C376.5,178.7,376.1,178.5,375.6,178.5z"/></svg>