<svg xmlns="http://www.w3.org/2000/svg" xmlns:xlink="http://www.w3.org/1999/xlink" version="1.1" x="0px" y="0px" viewBox="64 64 384 384" style="enable-background:new 0 0 512 512;" xml:space="preserve"><path d="M236.3,166.5c2.3,0,4.6,0.6,6.7,1.7l139.3,76.2c4.4,2.4,7,6.7,7,11.6c0,4.9-2.6,9.2-7,11.6l-139.3,76.2  c-4.3,2.4-9.6,2.3-13.9-0.2c-4.1-2.4-6.6-6.7-6.6-11.3v-16.5c0-3.3,2.7-6,6-6s6,2.7,6,6v16.5c0,0.4,0.2,0.8,0.7,1  c0.2,0.1,1.1,0.5,2,0l139.3-76.2c0.5-0.3,0.7-0.6,0.7-1s-0.2-0.8-0.7-1.1l-139.3-76.2c-0.9-0.5-1.8-0.1-2,0c-0.4,0.3-0.7,0.6-0.7,1  v16.5c0,3.3-2.7,6-6,6s-6-2.7-6-6v-16.5c0-4.7,2.4-8.9,6.6-11.3C231.4,167.2,233.9,166.5,236.3,166.5z"/><path d="M138.7,166.5c2.3,0,4.6,0.6,6.7,1.7l139.3,76.2c4.4,2.4,7,6.7,7,11.6c0,4.9-2.6,9.2-7,11.6l-139.3,76.2  c-4.3,2.4-9.6,2.3-13.9-0.2c-4.1-2.4-6.6-6.7-6.6-11.3V179.8c0-4.7,2.4-8.9,6.6-11.3C133.8,167.2,136.2,166.5,138.7,166.5z   M138.7,333.6c0.3,0,0.6-0.1,0.9-0.2L279,257.1c0.5-0.3,0.7-0.6,0.7-1s-0.2-0.8-0.7-1.1l-139.3-76.2c-0.9-0.5-1.8-0.1-2,0  c-0.4,0.3-0.7,0.6-0.7,1v152.5c0,0.4,0.2,0.8,0.7,1C137.9,333.4,138.2,333.6,138.7,333.6z"/></svg>