<svg xmlns="http://www.w3.org/2000/svg" xmlns:xlink="http://www.w3.org/1999/xlink" version="1.1" x="0px" y="0px" viewBox="64 64 384 384" style="enable-background:new 0 0 512 512;" xml:space="preserve"><path d="M344.6,173.6l-38.3,38.3h21.3c3.3,0,6,2.7,6,6s-2.7,6-6,6h-31.6c-5.6,0-10.1-4.6-10.1-10.1v-31.6c0-3.3,2.7-6,6-6  c3.3,0,6,2.7,6,6v21.3l38.3-38.3c2.3-2.4,6.1-2.4,8.5,0C347,167.4,347,171.2,344.6,173.6z"/><path d="M231.6,288.2v31.6c0,3.3-2.7,6-6,6s-6-2.7-6-6v-21.3l-38.3,38.3c-1.2,1.2-2.7,1.8-4.2,1.8c-1.6,0-3.1-0.6-4.2-1.8  c-2.4-2.3-2.4-6.1,0-8.5l38.3-38.3h-21.3c-3.3,0-6-2.7-6-6c0-3.3,2.7-6,6-6h31.6C227.1,278,231.6,282.6,231.6,288.2z"/><path d="M344.6,336.8c-1.2,1.2-2.7,1.8-4.2,1.8c-1.6,0-3.1-0.6-4.2-1.8l-38.3-38.3v21.3c0,3.3-2.7,6-6,6c-3.3,0-6-2.7-6-6v-31.6  c0-5.6,4.6-10.1,10.1-10.1h31.6c3.3,0,6,2.7,6,6c0,3.3-2.7,6-6,6h-21.3l38.3,38.3C347,330.7,347,334.5,344.6,336.8z"/><path d="M231.6,182.1v31.6c0,5.6-4.6,10.1-10.1,10.1h-31.6c-3.3,0-6-2.7-6-6s2.7-6,6-6h21.3l-38.3-38.3c-2.4-2.3-2.4-6.1,0-8.5  c2.3-2.4,6.1-2.4,8.5,0l38.3,38.3v-21.3c0-3.3,2.7-6,6-6S231.6,178.8,231.6,182.1z"/></svg>