<svg xmlns="http://www.w3.org/2000/svg" xmlns:xlink="http://www.w3.org/1999/xlink" version="1.1" x="0px" y="0px" viewBox="64 64 384 384" style="enable-background:new 0 0 512 512;" xml:space="preserve"><path d="M187.5,345.6c-2.5,0-5-0.7-7.1-1.9c-4.1-2.4-6.6-6.7-6.6-11.3V179.8c0-4.7,2.4-8.9,6.6-11.3c4.2-2.5,9.5-2.6,13.9-0.2  l139.3,76.2c4.4,2.4,7,6.7,7,11.6c0,4.9-2.6,9.2-7,11.6l-139.3,76.2C192.1,345,189.8,345.6,187.5,345.6z M187.5,178.5  c-0.5,0-0.9,0.2-1,0.3c-0.4,0.3-0.7,0.6-0.7,1v152.5c0,0.4,0.2,0.8,0.7,1c0.2,0.1,1.1,0.5,2,0l139.3-76.2c0.5-0.3,0.7-0.6,0.7-1.1  c0-0.4-0.2-0.8-0.7-1l-139.3-76.2C188.1,178.6,187.8,178.5,187.5,178.5z"/></svg>