<svg xmlns="http://www.w3.org/2000/svg" xmlns:xlink="http://www.w3.org/1999/xlink" version="1.1" x="0px" y="0px" viewBox="64 64 384 384" style="enable-background:new 0 0 512 512;" xml:space="preserve"><path d="M383.9,255.3c0,34.4-24.2,61.3-55.1,61.3c-34.8,0-63.9-22.8-75.9-59.4c-10.3-31.5-35-51.1-64.5-51.1c-0.1,0-0.2,0-0.2,0  c-0.1,0-0.2,0-0.2,0c-24.2,0-43.1,21.6-43.1,49.3c0,27.6,18.9,49.3,43.1,49.3c0.1,0,0.2,0,0.2,0c0.1,0,0.2,0,0.2,0  c20.6,0,38.1-9.3,52-27.5c2-2.6,5.8-3.2,8.4-1.1c2.6,2,3.2,5.8,1.1,8.4c-16,21.1-37.3,32.3-61.5,32.3c-0.1,0-0.2,0-0.2,0  c-0.1,0-0.2,0-0.2,0c-30.9,0-55.1-26.9-55.1-61.3c0-34.4,24.2-61.3,55.1-61.3c0.1,0,0.2,0,0.2,0c0.1,0,0.2,0,0.2,0  c34.8,0,63.9,22.8,75.9,59.4c10.3,31.5,35,51.1,64.5,51.1c24.2,0,43.1-21.6,43.1-49.3c0-27.6-18.9-49.3-43.1-49.3  c-20.6,0-38.1,9.3-52,27.5c-1.2,1.6-3,2.4-4.8,2.4c-1.3,0-2.5-0.4-3.6-1.2c-2.6-2-3.2-5.8-1.1-8.4c16-21.1,37.3-32.3,61.5-32.3  C359.7,194.1,383.9,221,383.9,255.3z"/></svg>